# xmcd
# 
# Track frame offsets:
#     150
#     10056
#     23424
#     34912
#     45662
#     60303
#     73187
#     84021
#     93314
#     102438
#     114926
#     124038
#     137080
#     147064
#     161745
#     175497
# 
# Disc length: 2489
# 
# Revision: 1
# Processed by: cddbd v1.5.2PL0 Copyright (c) Steve Scherf et al.
# Submitted via: fre:ac v1.0.31
# 
DISCID=c709b710
DTITLE=Various Artist - Ultimate Country [ CD 2 ]
DYEAR=2005
DGENRE=Country
TTITLE0=Johnny Cash - Rock Island Line
TTITLE1=Billie Jo Spears - It Coulda Been Me
TTITLE2=Patsy Cline - Crazy Dreams
TTITLE3=Faron Young - If You Ain't Lovin'
TTITLE4=Freddy Fender - Since I Met You Baby
TTITLE5=Gene Autry - South of the Border
TTITLE6=Waylon Jennings - Dream Baby
TTITLE7=Dolly Parton - Girl Left Alone
TTITLE8=Buck Owens - After the Dance
TTITLE9=Hank Williams - (Last Night) I Heard You Crying in Your Sleep
TTITLE10=Lynn Anderson - Ride, Ride, Ride
TTITLE11=Roger Miller - The Last Word in Lonesome is Me
TTITLE12=Skeeter Davis - I Can't Stay Mad at You
TTITLE13=Loretta Lynn - Coalminer's Daughter
TTITLE14=Merle Haggard - Cherokee Maiden
TTITLE15=Willie Nelson - Suffering in Silence
EXTD=YEAR: 2005
EXTT0=
EXTT1=
EXTT2=
EXTT3=
EXTT4=
EXTT5=
EXTT6=
EXTT7=
EXTT8=
EXTT9=
EXTT10=
EXTT11=
EXTT12=
EXTT13=
EXTT14=
EXTT15=
PLAYORDER=
